<?xml version="1.0" encoding="utf-8"?>
<svg viewBox="0 0 418.85 79.9" xmlns="http://www.w3.org/2000/svg">
  <defs>
    <style>.cls-1{fill:#a97c50;}</style>
  </defs>
  <g id="Layer_2" data-name="Layer 2">
    <g id="Layer_1-2" data-name="Layer 1">
      <path class="cls-1" d="M120.28,10.86a11.13,11.13,0,0,1-2.69,7.56A8.39,8.39,0,0,1,111,21.51a9,9,0,0,1-7-3.13,11.14,11.14,0,0,1-2.82-7.73A11,11,0,0,1,103.94,3a9,9,0,0,1,7-3,8.5,8.5,0,0,1,6.69,3.12A11.41,11.41,0,0,1,120.28,10.86Zm-3.36.15q0-5.5-2.25-8.57A4.58,4.58,0,0,0,110.74.51,4.74,4.74,0,0,0,107,2q-2.43,2.72-2.43,8.82,0,4.84,1.69,7.52A5.33,5.33,0,0,0,111,21a4.64,4.64,0,0,0,4.29-2.53A15.05,15.05,0,0,0,116.92,11Z" style="fill: rgb(250, 250, 249);"/>
      <path class="cls-1" d="M161.77,10.74A9.94,9.94,0,0,1,158.08,19a11.19,11.19,0,0,1-7.23,2.17h-8.13q-.57,0-.57-.3t1-.27q1.23,0,1.53-.45a3.09,3.09,0,0,0,.12-1.14V2.82a3.45,3.45,0,0,0-.23-1.71c-.15-.16-.66-.24-1.54-.24q-.69,0-.69-.33t.51-.24H148a27.07,27.07,0,0,1,7.65.75,8.15,8.15,0,0,1,4.41,3.57A11.2,11.2,0,0,1,161.77,10.74Zm-3.36-.12q0-5-1.95-7.33T150.37,1a4.14,4.14,0,0,0-2.43.42,3.12,3.12,0,0,0-.18,1.45v16a6.68,6.68,0,0,0,0,1,.5.5,0,0,0,.26.3,8.08,8.08,0,0,0,3,.36,6.55,6.55,0,0,0,5.22-2.29Q158.41,15.83,158.41,10.62Z" style="fill: rgb(250, 250, 249);"/>
      <path class="cls-1" d="M202.6.48q0,.24-.57.27a3.14,3.14,0,0,0-1.77.39,4.11,4.11,0,0,0-.93,1.69l-1,2.8q-3.69,10.13-5.19,15.55-.09.36-.3.36t-1-2.25q-1.35-4.11-2.1-6.18-.81-2.28-2.38-6.82l-1.46-4a2.61,2.61,0,0,0-.66-1.13A2.17,2.17,0,0,0,184,.81c-.66,0-1.06,0-1.19-.06a.21.21,0,0,1-.19-.24q0-.27.6-.27h.27c.36,0,1,0,1.87,0l1.91,0,1.15,0c.67,0,1.63,0,2.87,0h.42q.54,0,.54.27T191.2.84L189.37.9c-.42,0-.63.16-.63.41a1.14,1.14,0,0,0,.06.25l.23.81q.06.24,2.93,8.46l1.83,5.38q5-14,4.94-14.74T197.26.84h-.93q-.36,0-.36-.27t.9-.33h1q.84.09,1.23.09h1l2-.09Q202.6.24,202.6.48Z" style="fill: rgb(250, 250, 249);"/>
      <path class="cls-1" d="M231.31.58c0,.15-.21.23-.63.23a8.77,8.77,0,0,0-1.41.07c-.18.06-.29.14-.32.26a8.32,8.32,0,0,0,0,1.17V14.75q0,2.07,0,3.39a16.29,16.29,0,0,1-.27,2.8,4.79,4.79,0,0,1-1.76,2.68,4.73,4.73,0,0,1-3,1.13,2.77,2.77,0,0,1-1.88-.62,2,2,0,0,1-.72-1.6A1.5,1.5,0,0,1,223,20.82a1.65,1.65,0,0,1,1.15.42,1.39,1.39,0,0,1,.47,1.08,1.52,1.52,0,0,1-.39,1,1,1,0,0,0-.27.51q0,.27.45.27,1,0,1.35-1.17a17.6,17.6,0,0,0,.21-3.69V2.13q0-1-.57-1.2a6.47,6.47,0,0,0-1.44-.09,2.25,2.25,0,0,1-.68-.06.19.19,0,0,1-.13-.18q0-.3.48-.3h6.75C231,.3,231.31.39,231.31.58Z" style="fill: rgb(250, 250, 249);"/>
      <path class="cls-1" d="M268.63,16.32q0,.12-.06,1.47t-.06,2.58v1q-2.94-.18-11.64-.18h-3.75q-.57,0-.57-.24c0-.11.06-.17.18-.19l1.14-.08c.52,0,.83-.15.94-.33a3.5,3.5,0,0,0,.17-1.42V2c0-.58-.09-.92-.26-1a4.29,4.29,0,0,0-1.63-.17c-.32,0-.48-.08-.48-.26s.22-.25.66-.25H266a10.48,10.48,0,0,0,1.65-.12q.06,1.29.27,3.57L268,5a2.06,2.06,0,0,1,0,.39q0,.3-.27.3T267.31,5c-.38-1.82-1-3-1.86-3.45q-1-.54-5-.54H258V9.81h.72c2.24,0,3.6-.17,4.09-.51s.83-1.33,1-3q.06-.63.33-.63t.33.54q0,.54-.06,1.59t-.06,1.59q0,3.21.09,4.41,0,.3,0,.51,0,.39-.33.39c-.14,0-.23-.08-.28-.25s-.14-.73-.26-1.67a2.39,2.39,0,0,0-1.46-2.19,12.46,12.46,0,0,0-2.81-.18H258v10a57.18,57.18,0,0,0,7.74-.27c1.32-.29,2.07-1.56,2.25-3.79,0-.49.17-.74.39-.74S268.63,15.9,268.63,16.32Z" style="fill: rgb(250, 250, 249);"/>
      <path class="cls-1" d="M306.34,5.67q0,.39-.36.39t-.51-.78l-.12-1.08a5.21,5.21,0,0,0-.69-1.83,3,3,0,0,0-2.07-1.26,6.48,6.48,0,0,0-1.5-.15L299.38,1V19.14q0,1.08.57,1.35a5.53,5.53,0,0,0,1.68.18c.24,0,.36.1.36.25s-.16.26-.48.26a2.58,2.58,0,0,1-.42,0q-1.8-.06-2.55-.06c-.66,0-1.28,0-1.86,0s-1.32.05-2.22.05q-.69,0-.69-.24t1.29-.3q.93,0,1.2-.39a3,3,0,0,0,.15-1.23V1a14.85,14.85,0,0,0-3.69.3Q290.83,2,290.5,5q-.09.9-.42.9t-.36-.63q0-.33,0-.66l.06-.69q.09-1.38.27-3.63h1.35l6.12.09q1.08,0,3.36,0l5-.09q.06,1.68.39,5a1,1,0,0,0,0,.22A1.19,1.19,0,0,1,306.34,5.67Z" style="fill: rgb(250, 250, 249);"/>
      <path class="cls-1" d="M346.06.6q0,.3-.75.27h-1.2c-.32,0-.51.06-.57.16a3.09,3.09,0,0,0-.09,1V19.29q0,1.59,0,1.86t-.18.27q-.18,0-.42-.33L339,15.47q-3.35-4.91-8.11-12.26V20a.52.52,0,0,0,.45.49,12.16,12.16,0,0,0,2,.14c.27,0,.4.08.4.24s-.26.3-.78.3l-1.71-.09-.93,0-.53.06c-.37,0-.93.06-1.69.06h-.3q-.69,0-.69-.27t.6-.27a5.7,5.7,0,0,0,2-.23c.19-.13.29-.55.29-1.27V4.33c0-1.67-.34-2.71-1-3.13a3.46,3.46,0,0,0-1.71-.3c-.52,0-.78-.11-.78-.32s.15-.28.45-.28.91,0,1.53.06l1,.06.84,0q1,0,1.92-.09l10.35,15.45V2.4c0-.62,0-1,0-1.13a.4.4,0,0,0-.24-.29,5,5,0,0,0-1.44-.11q-1.08,0-1.08-.27t.72-.3h4.83Q346.06.3,346.06.6Z" style="fill: rgb(250, 250, 249);"/>
      <path class="cls-1" d="M375.07,20.9c0,.16-.12.25-.36.25h-.3a38.4,38.4,0,0,0-4.08-.09q-.75,0-1.5.06-.39,0-1.2,0-.39,0-.39-.27t.78-.27c.8,0,1.27-.11,1.41-.29a3.81,3.81,0,0,0,.21-1.73V2.77a4.48,4.48,0,0,0-.15-1.66c-.13-.2-.68-.32-1.68-.36q-.57,0-.57-.21T367.6.3h4.08l1.76,0,1.14,0c.33,0,.49.09.49.26s-.45.24-1.34.28c-.51,0-.81.11-.93.27a2.85,2.85,0,0,0-.16,1.26v16a5.3,5.3,0,0,0,.15,1.86,3.54,3.54,0,0,0,1.95.39C375,20.64,375.07,20.73,375.07,20.9Z" style="fill: rgb(250, 250, 249);"/>
      <path class="cls-1" d="M416.65,20.91q0,.27-.42.27h-7.74c-.38,0-.57-.08-.57-.23s.25-.24.75-.28q1.56-.15,1.56-.51T402,10.41v8.65c0,.69.11,1.13.33,1.3a3.63,3.63,0,0,0,1.77.25q.33,0,.33.3t-.42.27h-7c-.3,0-.45-.09-.45-.26s.37-.29,1.11-.31,1.08-.17,1.2-.45a9,9,0,0,0,.09-1.89V1.56c0-.42-.58-.63-1.67-.63-.49,0-.73-.11-.73-.33s.17-.27.51-.27l.39,0c.33,0,1.22.06,2.69.06s2.57,0,3-.06q.33,0,.69,0c.37,0,.55.11.55.33a.21.21,0,0,1-.17.22,5.81,5.81,0,0,1-1.05.08q-.88,0-1.05.24A3,3,0,0,0,402,2.55V9.87l2.55-2.55a81.66,81.66,0,0,0,5.79-6.06q0-.39-1.41-.36-.9,0-.9-.3t.42-.24q.42,0,2.91,0h1.65a11.81,11.81,0,0,1,1.2,0q.3.06.3.3t-.66.33a9.52,9.52,0,0,0-1.78.06,1.72,1.72,0,0,0-.78.5q-1.95,2.05-5.92,6.14l-.81.76-.38.42q.18.21,1.5,1.62,2.52,2.63,7.23,8.38a8.45,8.45,0,0,0,1.37,1.44,3.37,3.37,0,0,0,1.46.3Q416.65,20.67,416.65,20.91Z" style="fill: rgb(250, 250, 249);"/>
      <path class="cls-1" d="M128.64,46.47q0,.84-.6.84c-.4,0-.68-.51-.84-1.52-.48-2.92-1.47-5-2.94-6.38a7.81,7.81,0,0,0-4.45-1.58c-.71-.08-2.32-.12-4.79-.12q-2.76,0-6.6.18V55.53c5.11,0,8.28-.29,9.48-1s1.91-2.67,2.16-5.91q.12-1.38.72-1.38c.39,0,.6.3.6.9a4.56,4.56,0,0,1-.07.9q-.16,4.14-.17,7.68,0,4.56.19,7.2a4.13,4.13,0,0,1,0,.72q0,.72-.6.72a.55.55,0,0,1-.6-.36,26.19,26.19,0,0,1-.42-2.76c-.32-2.44-.94-4-1.88-4.56s-2.8-.9-5.58-.9c-1.48,0-2.77,0-3.88.12V74.79A2.08,2.08,0,0,0,109.78,77a9.9,9.9,0,0,0,2.91.18c.63,0,1,.16,1,.48s-.41.54-1.2.54H98.76c-.77,0-1.14-.16-1.14-.48s.69-.52,2.07-.6,2.19-.27,2.43-.57a6.09,6.09,0,0,0,.36-2.8V39.21c0-.72-.26-1.17-.64-1.35a10.88,10.88,0,0,0-3.13-.33c-.65,0-1-.2-1-.6s.36-.54,1.07-.54h16.45A118.5,118.5,0,0,0,127.68,36q0,.78.36,4.5c.12,1.68.27,3.18.48,4.5A10.41,10.41,0,0,1,128.64,46.47Z" style="fill: rgb(250, 250, 249);"/>
      <path class="cls-1" d="M148.86,55.47a3.25,3.25,0,0,1-.84,2.28,2.85,2.85,0,0,1-2.16.9,2.63,2.63,0,0,1-1.8-.63,2,2,0,0,1-.72-1.59,2.08,2.08,0,0,1,.54-1.44q.54-.6.54-.84,0-.9-1.32-.9c-1.12,0-2.08.7-2.88,2.09-.93,1.63-1.38,4.66-1.38,9.07V76.24a.83.83,0,0,0,.51.89,15.32,15.32,0,0,0,3.09.24q.66.12.66.48c0,.28-.27.42-.78.42H130.68q-1,0-1-.36t.78-.36h.84c1.35,0,2.16-.16,2.4-.48a10.72,10.72,0,0,0,.12-2.23V58.25c0-2.21-.33-3.48-1-3.83a7.73,7.73,0,0,0-3.15-.57q-.72,0-.72-.42c0-.28.19-.42.6-.42H130q.9,0,1.8.09l.78.09a11.82,11.82,0,0,0,4.92-1.26l.78-.36.48-.18a17.49,17.49,0,0,1,.24,2.88v1.2q1.92-4.08,5.4-4.08a4.51,4.51,0,0,1,3.18,1.17A3.81,3.81,0,0,1,148.86,55.47Z" style="fill: rgb(250, 250, 249);"/>
      <path class="cls-1" d="M174.66,75.45c0,.68-.71,1.39-2.12,2.13a8.84,8.84,0,0,1-4.09,1.11q-4.12,0-4.3-4.26a7.44,7.44,0,0,1-7,4.44,6,6,0,0,1-4.24-1.53,5.08,5.08,0,0,1-1.68-3.93q0-4.92,5.89-7.8a32.6,32.6,0,0,1,7-1.92v-1.5a28,28,0,0,0-.54-7,4.1,4.1,0,0,0-4.33-3.06,5.36,5.36,0,0,0-3.5,1.14,3.53,3.53,0,0,0-1.42,2.88c0,.32.25.48.74.48a1.69,1.69,0,0,1,1.32.72A2.51,2.51,0,0,1,157,59a2.33,2.33,0,0,1-2.62,2.64,3,3,0,0,1-2.25-.93,3.27,3.27,0,0,1-.9-2.37,6.39,6.39,0,0,1,2.23-4.86,9.84,9.84,0,0,1,6.84-2.22c4.39,0,7.1,1.2,8.1,3.6a17.77,17.77,0,0,1,.54,5.46V71.55c0,1.84,0,2.92.06,3.24.19,1.44.77,2.16,1.73,2.16a3.58,3.58,0,0,0,2.77-1.2c.4-.44.69-.66.9-.66S174.66,75.21,174.66,75.45ZM164.1,69.09V64.71a15.14,15.14,0,0,0-6.36,2.67,5.53,5.53,0,0,0-1.93,4.41,4.56,4.56,0,0,0,1.1,3.15,3.53,3.53,0,0,0,2.75,1.23c1.7,0,3.05-1,4.08-2.88A13.12,13.12,0,0,0,164.1,69.09Z" style="fill: rgb(250, 250, 249);"/>
      <path class="cls-1" d="M201.83,77.82c0,.3-.3.45-.89.45h-11c-.53,0-.79-.14-.79-.42a.34.34,0,0,1,.33-.36c.22,0,1-.08,2.31-.12q1.14-.06,1.32-.33a5.45,5.45,0,0,0,.18-1.94V63.6c0-4.34-.16-6.94-.48-7.78a4,4,0,0,0-4.08-2.69,6.17,6.17,0,0,0-5,2.63,3.47,3.47,0,0,0-.6,2.16V76.59q0,.72,1.29.78l1.83.06q.6,0,.6.42t-.72.42H175.13c-.6,0-.9-.12-.9-.37s.36-.4,1.08-.47h1.5c.6,0,1-.14,1.09-.42l.17-.9v-13q0-6.82-.12-7.54t-1.5-.72h-1.74q-1.2,0-1.2-.45c0-.38.43-.57,1.26-.57a16.16,16.16,0,0,0,3.9-.66,7.44,7.44,0,0,0,2.94-1.38,1.56,1.56,0,0,1,.84-.48q.42,0,.42,1.14v2.88a9.73,9.73,0,0,1,8-4q4.32,0,6.24,3.18,1.08,1.8,1.08,6.84V75a5.7,5.7,0,0,0,.18,2.1,2.71,2.71,0,0,0,1.74.36h1.08Q201.83,77.43,201.83,77.82Z" style="fill: rgb(250, 250, 249);"/>
      <path class="cls-1" d="M229.07,65.19a14,14,0,0,1-3.54,9.75,11.38,11.38,0,0,1-8.82,3.93,12,12,0,0,1-9.12-3.93,13.76,13.76,0,0,1-3.66-9.75,14.32,14.32,0,0,1,3.57-10,11.5,11.5,0,0,1,8.91-4,11.71,11.71,0,0,1,9,4A14.2,14.2,0,0,1,229.07,65.19Zm-5.46-.06q0-6.6-2-10.26a5.3,5.3,0,0,0-5-2.7q-3.36,0-5.25,3.45t-1.89,9.57q0,6.06,2,9.45A6.23,6.23,0,0,0,217,78a4.48,4.48,0,0,0,4.08-2.1Q223.61,72,223.61,65.13Z" style="fill: rgb(250, 250, 249);"/>
      <path class="cls-1" d="M273.53,67.23A9.62,9.62,0,0,1,268,76.29a19.84,19.84,0,0,1-7.74,1.8q-1.38.06-8.16.06h-7.32q-1,0-1-.51t1.86-.51q2.16,0,2.55-.45a5.4,5.4,0,0,0,.39-2.73V41.49a10,10,0,0,0-.24-3.06q-.42-.72-3.06-.78-1.62,0-1.62-.63t1.5-.57h.72a4.6,4.6,0,0,0,1.2.18h11.7q6.48.06,9.66,2.16a8,8,0,0,1,3.72,7.14A8.4,8.4,0,0,1,269,52.62a15.85,15.85,0,0,1-8.58,3.27v.36A18.34,18.34,0,0,1,269,58.53,9.6,9.6,0,0,1,273.53,67.23Zm-8-20.7q0-5.76-2.64-7.68-1.38-1-5.22-1-1,0-3.18.18v17.4H255l3.3-.12a6.81,6.81,0,0,0,5.31-2.43A9.71,9.71,0,0,0,265.49,46.53Zm1.74,20q0-7.56-6.12-9.36a27.09,27.09,0,0,0-6.66-.54V74.55q0,1.74.36,2a7.68,7.68,0,0,0,3.36.42,8.59,8.59,0,0,0,6.6-2.64Q267.23,71.67,267.23,66.57Z" style="fill: rgb(250, 250, 249);"/>
      <path class="cls-1" d="M302,75.45c0,.68-.7,1.39-2.12,2.13a8.78,8.78,0,0,1-4.09,1.11q-4.11,0-4.29-4.26a7.45,7.45,0,0,1-7,4.44,6.05,6.05,0,0,1-4.24-1.53,5.1,5.1,0,0,1-1.67-3.93q0-4.92,5.89-7.8a32.46,32.46,0,0,1,7-1.92v-1.5a28,28,0,0,0-.54-7,4.09,4.09,0,0,0-4.32-3.06,5.4,5.4,0,0,0-3.51,1.14,3.55,3.55,0,0,0-1.41,2.88c0,.32.25.48.74.48a1.72,1.72,0,0,1,1.32.72,2.5,2.5,0,0,1,.58,1.62,2.32,2.32,0,0,1-2.61,2.64,3,3,0,0,1-2.26-.93,3.3,3.3,0,0,1-.89-2.37,6.38,6.38,0,0,1,2.22-4.86,9.84,9.84,0,0,1,6.84-2.22q6.6,0,8.1,3.6a17.77,17.77,0,0,1,.54,5.46V71.55q0,2.76.06,3.24.3,2.16,1.74,2.16a3.55,3.55,0,0,0,2.76-1.2q.6-.66.9-.66T302,75.45Zm-10.56-6.36V64.71a15.26,15.26,0,0,0-6.36,2.67,5.52,5.52,0,0,0-1.92,4.41,4.56,4.56,0,0,0,1.1,3.15A3.52,3.52,0,0,0,287,76.17q2.54,0,4.08-2.88A13.59,13.59,0,0,0,291.47,69.09Z" style="fill: rgb(250, 250, 249);"/>
      <path class="cls-1" d="M330.65,77.73q0,.42-2.22.42-1.74,0-3.24-.06Q322.13,78,321,78q-.78,0-2.37.09t-2.37.09q-.54,0-.54-.42t1.14-.48c1.92,0,2.88-.31,2.88-1s-3.36-4.58-10.08-12.07V76.41q.06.9,1.71.84H313c.53,0,.79.14.79.42s-.44.48-1.32.48H302.15q-1.44,0-1.44-.51a.34.34,0,0,1,.27-.38,19.41,19.41,0,0,1,2.07-.13q1.44-.06,1.5-.66a20.33,20.33,0,0,0,.12-3.11V44.06c0-3.15,0-4.79-.06-4.91q-.12-.42-1.74-.42h-1.56q-.66,0-.66-.45t1.38-.45a13.25,13.25,0,0,0,6-1.74,2.64,2.64,0,0,1,1-.42q.66,0,.66,5V62.79q9.72-8.64,9.72-9.54,0-.36-2.34-.36h-1.86q-1.08,0-1.08-.48t1.86-.54h8.4q2.16,0,2.52.06a.39.39,0,0,1,.36.42q0,.42-2.82.48a7.41,7.41,0,0,0-2.46.3,6.54,6.54,0,0,0-1.38,1.09l-7.5,7.27q8.34,9.15,11.82,13.41A7.66,7.66,0,0,0,327.17,77a8.3,8.3,0,0,0,2.94.24Q330.65,77.25,330.65,77.73Z" style="fill: rgb(250, 250, 249);"/>
      <path class="cls-1" d="M355.25,65.19a14,14,0,0,1-3.54,9.75,11.38,11.38,0,0,1-8.82,3.93,12,12,0,0,1-9.12-3.93,13.76,13.76,0,0,1-3.66-9.75,14.32,14.32,0,0,1,3.57-10,11.5,11.5,0,0,1,8.91-4,11.71,11.71,0,0,1,9,4A14.2,14.2,0,0,1,355.25,65.19Zm-5.46-.06q0-6.6-2-10.26a5.3,5.3,0,0,0-5-2.7q-3.36,0-5.25,3.45t-1.89,9.57q0,6.06,2,9.45A6.23,6.23,0,0,0,343.19,78a4.48,4.48,0,0,0,4.08-2.1Q349.79,72,349.79,65.13Z" style="fill: rgb(250, 250, 249);"/>
      <path class="cls-1" d="M382,52.35q0,.42-1.14.42h-1.44a1.86,1.86,0,0,0-1.68,1.32L377,56.38l-5,15.51c-.28.81-.68,2-1.2,3.67-.64,2.21-1.16,3.31-1.56,3.31s-.56-.38-.84-1.14q-.3-.72-.6-1.62Q362.87,63,362.81,63q-3.12-9-3.78-9.77a2.09,2.09,0,0,0-1.68-.49H356q-.6,0-.6-.39t.84-.39h11.46q.6,0,.6.42t-1.86.48c-1.24,0-1.86.16-1.86.49a6.17,6.17,0,0,0,.51,2q1,2.4,3.75,10.31c.79,2.36,1.45,4.17,2,5.41q1.69-5.37,3-9.22a76.36,76.36,0,0,0,2.65-8.55q0-.54-.9-.54h-1.32q-.78,0-.78-.42t.72-.36h6Q382,51.93,382,52.35Z" style="fill: rgb(250, 250, 249);"/>
      <path class="cls-1" d="M394.61,77.79q0,.54-1,.54l-1.44-.12q-1.8-.12-3-.12h-6.24a1.12,1.12,0,0,1-.72.24c-.44,0-.66-.15-.66-.44s.4-.64,1.2-.64a5.59,5.59,0,0,0,2.49-.33,7.19,7.19,0,0,0,.21-2.49V56.25a10.42,10.42,0,0,0-.15-1.77q-.09-.27-.75-.27h-2.34q-.66,0-.66-.42c0-.24.33-.38,1-.42a14.33,14.33,0,0,0,6.8-1.87l.6-.35a8,8,0,0,1,.47,3.29V73.72a22.73,22.73,0,0,0,.09,2.81.72.72,0,0,0,.63.54,10.93,10.93,0,0,0,2.64.24Q394.61,77.31,394.61,77.79Zm-4.5-37.38a2.39,2.39,0,0,1-2.7,2.7,2.66,2.66,0,0,1-1.92-.75,2.44,2.44,0,0,1-.78-1.83q0-2.82,2.7-2.82A2.39,2.39,0,0,1,390.11,40.41Z" style="fill: rgb(250, 250, 249);"/>
      <path class="cls-1" d="M418.85,57.45q0,2.76-2.7,2.76t-2.64-2.52a5.43,5.43,0,0,1,.6-2,2.12,2.12,0,0,0,.18-.84,2.3,2.3,0,0,0-1.23-2,5.67,5.67,0,0,0-3.09-.78,6.25,6.25,0,0,0-5.58,3.12q-2,3.12-2,8.76,0,6.36,2,9.81a6.37,6.37,0,0,0,5.76,3.45,7.08,7.08,0,0,0,4.5-1.56,14.36,14.36,0,0,0,2.34-2.76.83.83,0,0,1,.54-.3q.6,0,.6.48,0,.78-2.1,2.94a9.14,9.14,0,0,1-6.9,2.82,11.31,11.31,0,0,1-8.73-3.78A13.61,13.61,0,0,1,397,65.55a14.68,14.68,0,0,1,3.66-10.23,11.85,11.85,0,0,1,9.18-4,10.87,10.87,0,0,1,6.27,1.86Q418.85,55,418.85,57.45Zm-5.94-18.9-5.46,5.7q-3.6,3.78-4.2,3.78-.36,0-.36-.3a.92.92,0,0,1,.12-.36q.66-1.62,2-4.68l1.92-4.2h2.82q.78.06,2.1.06Z" style="fill: rgb(250, 250, 249);"/>
      <path class="cls-1" d="M56.64,37.55c1.23.24,2.39.48,3.56.7,6.29,1.18,11.49,4,14.8,9.73a21.74,21.74,0,0,1,2.71,7.47,23,23,0,0,1-.26,9A18.58,18.58,0,0,1,71.12,75a17.08,17.08,0,0,1-7.07,3.49,42.86,42.86,0,0,1-6.56,1c-3.47.24-7,.23-10.44.33-.39,0-.66,0-.63-.55s0-.73.64-.73a16,16,0,0,0,6.44-1.27,15,15,0,0,0,4-2.82,21.61,21.61,0,0,0,4.23-4.82,18.64,18.64,0,0,0,2.31-6.77,23.54,23.54,0,0,0-.21-8.58c-.92-4.25-2.51-8.25-6.22-11a15.53,15.53,0,0,0-5.9-2.66c-1.63-.36-3.29-.6-4.94-.92a.52.52,0,0,1-.34-.38c0-.53,0-1.07,0-1.58-.12-.81.22-1.11.95-1.31,4.44-1.21,7.27-4.15,8.94-8.33A18.33,18.33,0,0,0,57.37,19a19,19,0,0,0-4.3-10.38,12.38,12.38,0,0,0-6.31-3.85C43.6,3.94,40.37,4,37.15,4c-4-.07-8,0-12,0-.63,0-.83.15-.82.8q0,16.08,0,32.16c0,.56.13.72.71.71A25.74,25.74,0,0,0,33,36.48a13.26,13.26,0,0,0,8.44-7.13,16.82,16.82,0,0,0,1.16-5.93c0-.38-.08-.82.59-.85s.85.13.84.83q0,16,0,32c0,.63-.19.8-.78.76-.36,0-.46-.14-.51-.47-.33-1.84-.61-3.69-1-5.5a12.55,12.55,0,0,0-4-6.91A15.07,15.07,0,0,0,30.18,40c-1.69-.28-3.4-.43-5.1-.65-.52-.07-.72.08-.72.65,0,8.23,0,16.47.07,24.7a32.67,32.67,0,0,0,.72,6.39,8.89,8.89,0,0,0,4.68,6.06A11.56,11.56,0,0,0,34,78.39c.68.09,1.36.14,2,.22s.28.55.32.84c0,.13-.21.38-.36.42a4.9,4.9,0,0,1-.94,0H.79c-.49,0-.81,0-.79-.67s.25-.6.69-.62A13.18,13.18,0,0,0,8,76.29a7.72,7.72,0,0,0,3-4.64,28.75,28.75,0,0,0,.86-5.59c.15-4.75.14-9.5.15-14.26,0-10.83,0-21.67,0-32.51a51.1,51.1,0,0,0-.49-7.42A8.79,8.79,0,0,0,5.26,4.46,27.77,27.77,0,0,0,.69,3.57C.17,3.48,0,3.33,0,2.81s.32-.56.72-.56H54.47a10.38,10.38,0,0,1,4.69.83c1.34.66,2.57,1.56,3.87,2.34a15.81,15.81,0,0,1,7.49,11.13,18.91,18.91,0,0,1-1.24,10.89,15.52,15.52,0,0,1-7.11,7.63C60.4,36,58.54,36.7,56.64,37.55Z" style="fill: rgb(250, 250, 249);"/>
    </g>
  </g>
</svg>